<svg height="511pt" viewBox="-16 0 511 511.994" width="511pt" xmlns="http://www.w3.org/2000/svg"><path d="m379.128906 187.625-30.816406-88.421875-19.816406 9.007813v-12.21875h-184v8.730468l-12.152344-5.519531-30.808594 88.421875c-13.78125 39.5625-16.972656 82.03125-9.253906 123.210938l12.214844 65.15625 80-24 24-40 31.832031 16 32.167969-16 23.671875 40 80 24 12.21875-65.167969c7.71875-41.167969 4.527343-83.644531-9.257813-123.199219zm0 0" fill="#fcb641"/><path d="m296.496094 351.992188-56 56-56-56-113.847656 36.832031c-13.984376 4.53125-25.128907 15.210937-30.238282 29l-31.914062 86.167969h464l-31.785156-88.988282c-5.15625-14.457031-16.925782-25.578125-31.652344-29.90625zm0 0" fill="#706d69"/><path d="m208.496094 311.992188-24 40 56 56 56-56-24-40-24.847656 12.425781c-4.503907 2.257812-9.808594 2.257812-14.3125 0zm0 0" fill="#f5d8a9"/><g fill="#fee7c1"><path d="m320.496094 159.992188-7.457032 119.265624c-.34375 5.441407-3.429687 10.335938-8.199218 12.992188l-56.574219 31.433594c-4.832031 2.6875-10.710937 2.6875-15.542969 0l-56.578125-31.433594c-4.769531-2.648438-7.855469-7.542969-8.199219-12.992188l-7.449218-119.265624"/><path d="m168.496094 247.992188h-24c-8.839844 0-16-7.15625-16-16v-32c0-8.839844 7.160156-16 16-16h16zm0 0"/><path d="m312.496094 247.992188h24c8.839844 0 16-7.15625 16-16v-32c0-8.839844-7.160156-16-16-16h-16zm0 0"/></g><path d="m319.777344 135.992188-162.914063-.015626 3.609375 64.015626h3.480469c21.582031 0 40-15.605469 43.550781-36.894532v-.007812l.007813-.015625c16.898437 24.910156 49.183593 34.886719 77.441406 23.175781l35.558594-14.734375zm0 0" fill="#fcb641"/><path d="m328.496094 391.992188v80l32-24 32 24v-88l-40-16zm0 0" fill="#fcb641"/><path d="m408.496094 183.992188c-8.839844 0-16-7.15625-16-16v-24c0-8.839844 7.160156-16 16-16s16 7.160156 16 16v24c0 8.84375-7.160156 16-16 16zm0 0" fill="#e65039"/><path d="m408.496094 191.992188c-13.230469 0-24-10.765626-24-24v-24c0-13.230469 10.769531-24 24-24 13.234375 0 24 10.769531 24 24v24c0 13.234374-10.765625 24-24 24zm0-56c-4.40625 0-8 3.59375-8 8v24c0 4.410156 3.59375 8 8 8 4.410156 0 8-3.589844 8-8v-24c0-4.40625-3.589844-8-8-8zm0 0"/><path d="m400.496094 199.992188h16v24h-16zm0 0"/><path d="m419.578125 197.585938 13.859375-8 12 20.785156-13.855469 8zm0 0"/><path d="m371.566406 210.371094 12-20.785156 13.855469 8-11.996094 20.785156zm0 0"/><path d="m272.496094 471.992188c0 17.675781-14.328125 32-32 32s-32-14.324219-32-32c0-17.671876 14.328125-32 32-32s32 14.328124 32 32zm0 0" fill="#fcb641"/><path d="m240.496094 439.992188c10.960937 0 20.617187 5.53125 26.382812 13.929687l86.28125-85.265625-56.664062-16.664062-56 56-56-56-52.152344 16.875 82.234375 84.496093c5.808594-8.066406 15.222656-13.371093 25.917969-13.371093zm0 0" fill="#e65039"/><path d="m160.496094 124.355469 80 27.636719 80-27.636719v-52.363281l-30.054688-8.941407c-33.015625-9.824219-68.183594-9.746093-101.152344.230469l-28.792968 8.710938zm0 0" fill="#706d69"/><path d="m240.496094 7.992188-168 64 88 40v-40l29.425781-8.832032c32.992187-9.894531 68.160156-9.894531 101.144531 0l29.429688 8.832032v40l88-40zm0 0" fill="#9c9792"/><path d="m480.03125 501.304688-31.78125-88.992188c-6-16.804688-19.816406-29.847656-36.9375-34.886719l-25.574219-7.519531 10.511719-57.601562c4.527344-24.160157 5.4375-48.78125 2.710938-73.191407l-15.894532 1.777344c2.542969 22.832031 1.6875 45.871094-2.554687 68.511719l-10.214844 55.96875-68.550781-20.160156-18.9375-31.5625 25.921875-14.398438c7.191406-3.992188 11.789062-11.273438 12.300781-19.480469l1.480469-23.777343h13.984375c13.234375 0 24-10.765626 24-24v-32c0-13.230469-10.765625-24-24-24h-8.984375l.96875-15.503907-15.96875-1-.429688 6.859375-30.210937 12.519532c-26.160156 10.847656-56.359375.398437-70.246094-24.28125l-2.863281-5.097657 29.117187 10.058594c.851563.304687 1.738282.445313 2.617188.445313s1.769531-.140626 2.617187-.4375l80-27.640626c1.984375-.6875 3.480469-2.144531 4.40625-3.929687h.976563v-10.847656l15.480468-7.039063 18.511719 53.144532 15.113281-5.265626-19-54.519531 41.894532-19.039062v27.574219h16v-40h-.03125c0-.085938.03125-.167969.03125-.246094-.101563-3.222656-2.136719-6.082032-5.152344-7.222656l-168-64c-1.832031-.699219-3.855469-.699219-5.695312 0l-168 64c-3.015626 1.152343-5.046876 4-5.152344 7.222656-.101563 3.222656 1.746094 6.191406 4.6875 7.527344l53.203125 24.183593-28.417969 81.527344c-14.214844 40.816406-17.519531 84.839844-9.558594 127.3125l11.253906 60.023437-27.488281 8.898438c-16.421875 5.3125-29.277343 17.648438-35.277343 33.832031l-31.90625 86.167969c-.9023442 2.457031-.558594 5.199219.9375 7.34375 1.496093 2.144531 3.949218 3.429688 6.566406 3.429688h464c2.601562 0 5.039062-1.261719 6.535156-3.390626 1.503906-2.128906 1.875-4.847656 1-7.296874zm-142.140625-128.796876-70.625 69.78125c-.769531-.6875-1.648437-1.214843-2.464844-1.847656-.886719-.6875-1.742187-1.398437-2.6875-2.015625-1.175781-.761719-2.425781-1.367187-3.671875-2-1-.503906-1.953125-1.0625-3-1.488281-1.410156-.566406-2.878906-.945312-4.351562-1.351562-.96875-.273438-1.898438-.632813-2.898438-.824219-2.519531-.488281-5.085937-.769531-7.695312-.769531-2.542969 0-5.046875.28125-7.503906.761718-1.183594.222656-2.296876.625-3.4375.953125-1.203126.351563-2.410157.65625-3.578126 1.109375-1.328124.523438-2.566406 1.1875-3.824218 1.839844-.894532.472656-1.792969.914062-2.65625 1.441406-1.261719.785156-2.4375 1.671875-3.597656 2.59375-.472657.367188-1 .65625-1.457032 1.046875l-67.375-69.230469 35.238282-11.402343 52.535156 52.535156c1.5625 1.570313 3.609375 2.351563 5.65625 2.351563s4.097656-.78125 5.65625-2.34375l52.640625-52.636719zm-121.394531 99.484376c0-5.199219 1.703125-9.980469 4.527344-13.917969.007812-.015625.035156-.023438.042968-.03125 1.054688-1.464844 2.269532-2.746094 3.566406-3.914063.296876-.261718.601563-.503906.902344-.742187 1.027344-.832031 2.113282-1.550781 3.242188-2.199219.488281-.273438.96875-.5625 1.472656-.800781 1.085938-.519531 2.230469-.921875 3.390625-1.273438.527344-.160156 1.03125-.367187 1.574219-.488281 1.722656-.390625 3.472656-.632812 5.28125-.632812 1.839844 0 3.640625.257812 5.394531.664062.496094.113281.957031.304688 1.4375.449219 1.242187.375 2.449219.816406 3.609375 1.382812.511719.25 1.007812.53125 1.503906.816407 1.085938.632812 2.121094 1.351562 3.101563 2.152343.417969.335938.84375.65625 1.234375 1.015625 1.230468 1.144532 2.367187 2.394532 3.351562 3.800782 2.734375 3.886718 4.367188 8.609374 4.367188 13.71875 0 13.234374-10.765625 24-24 24-13.230469 0-24-10.765626-24-24zm24-75.308594-45.925782-45.929688 8.488282-14.144531 8.484375-14.144531 18.21875 9.105468c6.726562 3.367188 14.75 3.359376 21.472656 0l18.214844-9.113281 16.976562 28.296875zm96-204.691406c4.410156 0 8 3.59375 8 8v32c0 4.410156-3.589844 8-8 8h-12.984375l3-48zm-76 7.144531c9.207031 0 18.535156-1.773438 27.503906-5.488281l22.96875-9.519532-5.910156 94.625c-.167969 2.734375-1.707032 5.167969-4.105469 6.496094l-56.578125 31.433594c-2.4375 1.351562-5.335938 1.351562-7.765625 0l-56.585937-31.433594c-2.390626-1.335938-3.925782-3.761719-4.09375-6.496094l-4.472657-71.511718c16.871094-2.726563 31.207031-13.464844 38.871094-28.488282 13.496094 13.082032 31.550781 20.382813 50.167969 20.382813zm-103.015625 40.855469h-12.984375c-4.40625 0-8-3.589844-8-8v-32c0-4.40625 3.59375-8 8-8h9.984375zm83.015625-96.460938-72-24.875v-40.710938l23.730468-7.121093c11.796876-3.542969 23.855469-5.75 35.972657-6.644531 1.363281-.097657 2.722656-.097657 4.082031-.160157.078125 0 .167969-.007812.246094-.007812l-.03125 55.980469h16l.03125-55.972657c13.34375.664063 26.640625 2.832031 39.632812 6.695313l24.335938 7.246094v40.695312zm0-126.976562 147.234375 56.085937-42.402344 19.273437-3.65625 1.664063-13.175781 5.992187v-27.578124c0-.878907-.144532-1.742188-.414063-2.542969-.128906-.367188-.359375-.679688-.539062-1.023438-.207031-.40625-.359375-.839843-.628907-1.207031-.210937-.28125-.503906-.480469-.753906-.738281-.34375-.351563-.648437-.742188-1.054687-1.023438-.191407-.136719-.433594-.191406-.640625-.3125-.535156-.308593-1.0625-.628906-1.671875-.816406l-29.425781-8.832031c-13.175782-3.949219-26.628907-6.375-40.152344-7.316406-.535156-.042969-1.070313-.027344-1.605469-.058594-3.703125-.222656-7.410156-.398438-11.113281-.398438-.121094 0-.238282.015625-.359375.015625-3.3125 0-6.625.183594-9.9375.359375-1.046875.054688-2.085938.046875-3.132813.121094-13.511718.976562-26.945312 3.429688-40.097656 7.40625l-27.550781 8.335938-1.226563.367187c-.847656.257813-1.628906.640625-2.328125 1.136719-.253906.183594-.4375.449218-.671875.65625-.390625.351562-.804687.679687-1.117187 1.097656-.402344.542969-.679688 1.160156-.9375 1.792969-.0625.148437-.175781.277343-.222657.4375-.273437.808593-.417968 1.664062-.417968 2.542969v27.578124l-13.175782-5.992187-3.65625-1.664063-42.398437-19.273437zm-131.40625 173.703124 27.925781-80.152343 15.480469 7.039062v10.847657h.976562c.921875 1.785156 2.425782 3.242187 4.40625 3.929687l28.097656 9.703125 11.710938 20.808594c.371094.648437.824219 1.207031 1.210938 1.839844-3.691407 13.730468-14.761719 24.066406-28.441407 26.878906l-1.976562-31.664063-15.96875 1 .96875 15.503907h-8.984375c-13.230469 0-24 10.769531-24 24v32c0 13.234374 10.769531 24 24 24h13.984375l1.488281 23.761718c.511719 8.207032 5.113281 15.488282 12.296875 19.480469l25.917969 14.398437-18.949219 31.585938-68.511719 20.550781-10.578125-56.414062c-7.457031-39.730469-4.359375-80.921875 8.945313-119.097657zm-61.175782 230.34375c4.277344-11.558593 13.460938-20.367187 25.191407-24.167968l56.96875-18.429688 74.550781 76.605469c-2.558594 5.28125-4.128906 11.128906-4.128906 17.382813 0 9.042968 3.128906 17.296874 8.207031 24h-188.710937zm224.375 75.390626c5.078126-6.703126 8.207032-14.957032 8.207032-24 0-5.933594-1.382813-11.527344-3.71875-16.605469l43.71875-43.199219v59.804688c0 3.035156 1.710937 5.800781 4.425781 7.160156 2.710937 1.355468 5.941406 1.058594 8.375-.757813l27.199219-20.402343 27.199218 20.402343c1.417969 1.054688 3.105469 1.597657 4.800782 1.597657 1.214844 0 2.449218-.277344 3.578125-.839844 2.710937-1.359375 4.421875-4.125 4.421875-7.160156v-40h-16v24l-19.199219-14.398438c-2.839844-2.136719-6.761719-2.136719-9.601563 0l-19.199218 14.398438v-59.613282l18.9375-18.714844 29.0625 8.554688v29.773438h16v-25.070313l6.304687 1.855469c12.230469 3.601562 22.097657 12.914062 26.382813 24.921875l27.960937 78.292969zm0 0"/></svg>