<?xml version="1.0" encoding="iso-8859-1"?>
<!-- Generator: Adobe Illustrator 19.0.0, SVG Export Plug-In . SVG Version: 6.00 Build 0)  -->
<svg version="1.1" id="Capa_1" xmlns="http://www.w3.org/2000/svg" xmlns:xlink="http://www.w3.org/1999/xlink" x="0px" y="0px"
	 viewBox="0 0 512 512" style="enable-background:new 0 0 512 512;" xml:space="preserve">
<path style="fill:#45B8C4;" d="M286.197,124.723v83.688c0,1.765-0.157,3.488-0.449,5.17c-2.454,14.214-14.883,25.066-29.786,25.066
	c-4.052,0-7.342-3.29-7.342-7.342c0-4.063,3.29-7.342,7.342-7.342c6.768,0,12.533-4.345,14.663-10.381
	c0.564-1.619,0.877-3.363,0.877-5.17v-83.688c0-60.67-49.359-110.028-110.028-110.028S51.446,64.053,51.446,124.723v34.006
	c0,4.052-3.29,7.342-7.342,7.342c-4.063,0-7.353-3.29-7.353-7.342v-34.006C36.751,55.949,92.7,0,161.474,0
	S286.197,55.949,286.197,124.723z"/>
<path style="fill:#424C59;" d="M281.435,224.674c-5.336,8.331-14.645,13.886-25.228,13.972c-3.802,0.03-7.168-2.793-7.55-6.575
	c-0.445-4.408,3-8.109,7.304-8.109c5.414,0,10.187-2.78,12.97-6.984c1.372-2.072,3.617-3.397,6.101-3.397h0.38
	C281.106,213.581,284.507,219.879,281.435,224.674z"/>
<g>
	<path style="fill:#D8401D;" d="M247.371,126.164h3.756c9.813,0,18.694,3.974,25.126,10.406
		c6.432,6.432,10.406,15.313,10.406,25.126c0,19.626-15.907,35.534-35.534,35.534h-4.883"/>
	<path style="fill:#D8401D;" d="M76.72,197.236h-4.898c-9.807,0-18.695-3.979-25.128-10.413
		c-6.434-6.434-10.402-15.311-10.402-25.128c0-3.561,0.522-6.998,1.493-10.235c4.397-14.632,17.974-25.296,34.037-25.296h3.77
		l0.804,50.601L76.72,197.236z"/>
</g>
<g>
	<path style="fill:#F9572B;" d="M76.397,176.766h-4.574c-9.807,0-18.695-3.979-25.128-10.413c-4.105-4.094-7.196-9.191-8.909-14.893
		c4.397-14.632,17.974-25.296,34.037-25.296h3.77L76.397,176.766z"/>
	<path style="fill:#F9572B;" d="M246.567,176.766h4.575c9.807,0,18.695-3.979,25.128-10.413c4.105-4.094,7.196-9.191,8.909-14.893
		c-4.397-14.632-17.974-25.296-34.037-25.296h-3.77L246.567,176.766z"/>
</g>
<path style="fill:#45B8C4;" d="M46.693,301.406c16.557-47.439,61.707-81.475,114.782-81.475c33.569,0,63.961,13.608,85.961,35.608
	c12.788,12.788,22.74,28.422,28.82,45.867l-61.519,34.585"/>
<path style="fill:#239999;" d="M161.483,219.931c-31.666,0-58.602,34.037-68.482,81.474H46.693
	C63.257,253.968,108.407,219.931,161.483,219.931z"/>
<path style="fill:#FFE2C5;" d="M161.477,263.83L161.477,263.83c-48.173,0-87.225-39.051-87.225-87.225v-35.122
	c0-48.173,39.051-87.225,87.225-87.225l0,0c48.173,0,87.225,39.051,87.225,87.225v35.122
	C248.702,224.778,209.649,263.83,161.477,263.83z"/>
<path style="fill:#E5C4A5;" d="M161.471,263.827c-48.168,0-87.218-39.05-87.218-87.218v-35.123c0-48.178,39.05-87.229,87.218-87.229
	c-24.439,0-44.262,39.05-44.262,87.229v35.123C117.209,224.777,137.032,263.827,161.471,263.827z"/>
<path style="fill:#424C59;" d="M247.033,124.42c-10.465,6.945-22.998,10.987-36.492,10.987c-28.262,0-52.366-17.776-61.787-42.748
	c-5.713,15.154-16.825,27.656-30.998,35.134c-9.191,4.867-19.666,7.614-30.789,7.614c-4.23,0-8.376-0.397-12.397-1.17l-0.01-0.094
	c3.739-44.742,41.223-79.887,86.915-79.887c24.094,0,45.891,9.765,61.683,25.546C235.116,91.761,243.607,107.177,247.033,124.42z"/>
<path style="fill:#242C35;" d="M161.475,54.257c-22.079,0-40.387,31.865-43.719,73.537c-9.191,4.867-19.666,7.614-30.789,7.614
	c-4.23,0-8.376-0.397-12.397-1.17l-0.01-0.094C78.299,89.401,115.782,54.257,161.475,54.257z"/>
<path style="fill:#BCBCBC;" d="M316.898,324.853v163.701c0,12.948-10.488,23.446-23.434,23.446H29.487
	c-12.947,0-23.434-10.499-23.434-23.446V324.853c0-12.948,10.488-23.446,23.434-23.446h263.977
	C306.41,301.406,316.898,311.905,316.898,324.853z"/>
<path style="fill:#D8D8D8;" d="M316.898,324.853v163.701c0,12.948-10.488,23.446-23.434,23.446H63.649
	c-12.947,0-23.434-10.499-23.434-23.446V324.853c0-12.948,10.488-23.446,23.434-23.446h229.815
	C306.41,301.406,316.898,311.905,316.898,324.853z"/>
<g>
	<path style="fill:#424C59;" d="M208.091,177.942c-1.471,0-2.94-0.561-4.062-1.683c-1.967-1.967-4.581-3.049-7.361-3.049
		c-2.78,0-5.394,1.083-7.36,3.049c-2.242,2.242-5.88,2.243-8.123,0s-2.243-5.88,0-8.123c4.136-4.136,9.635-6.414,15.484-6.414
		c5.85,0,11.349,2.278,15.484,6.414c2.243,2.243,2.243,5.88,0,8.123C211.031,177.381,209.56,177.942,208.091,177.942z"/>
	<path style="fill:#424C59;" d="M137.707,177.942c-1.471,0-2.94-0.561-4.062-1.683c-1.966-1.967-4.58-3.049-7.36-3.049
		c-2.78,0-5.394,1.083-7.36,3.049c-2.242,2.242-5.88,2.243-8.123,0s-2.243-5.88,0-8.123c4.136-4.136,9.635-6.414,15.484-6.414
		c5.85,0,11.349,2.278,15.484,6.414c2.243,2.243,2.243,5.88,0,8.123C140.647,177.381,139.178,177.942,137.707,177.942z"/>
</g>
<path style="fill:#E5C4A5;" d="M161.477,227.195c-8.29,0-16.579-3.155-22.89-9.466c-2.243-2.243-2.243-5.88,0-8.123
	c2.243-2.242,5.88-2.242,8.123,0c8.141,8.143,21.39,8.142,29.535,0c2.244-2.243,5.88-2.242,8.123,0c2.243,2.243,2.243,5.88,0,8.123
	C178.057,224.039,169.766,227.195,161.477,227.195z"/>
<circle style="fill:#FCC63F;" cx="161.475" cy="406.702" r="25.065"/>
<path style="fill:#BCBCBC;" d="M161.475,439.601c-18.14,0-32.898-14.757-32.898-32.898s14.757-32.898,32.898-32.898
	c18.139,0,32.898,14.757,32.898,32.898S179.614,439.601,161.475,439.601z M161.475,389.471c-9.502,0-17.232,7.73-17.232,17.232
	s7.73,17.232,17.232,17.232c9.501,0,17.232-7.73,17.232-17.232S170.976,389.471,161.475,389.471z"/>
<path style="fill:#FCC63F;" d="M408.787,0.754c-53.659,0-97.16,40.467-97.16,90.385c0,28.528,14.211,53.963,36.403,70.529
	c-2.956,12.124-8.858,27.877-20.583,39.603c0,0,42.64-2.441,58.084-22.36c7.452,1.703,15.24,2.613,23.257,2.613
	c53.659,0,97.16-40.467,97.16-90.385S462.447,0.754,408.787,0.754z"/>
<g>
	<path style="fill:#45B8C4;" d="M379.837,108.848c-7.065,0-10.521-9.153-5.109-13.763c2.64-2.25,6.566-2.527,9.465-0.586
		c2.711,1.816,4.042,5.245,3.245,8.416C386.572,106.359,383.389,108.848,379.837,108.848z"/>
	<path style="fill:#45B8C4;" d="M437.73,108.848c-6.918,0-10.403-8.74-5.397-13.509c2.424-2.309,6.14-2.795,9.089-1.231
		c2.955,1.567,4.592,4.955,4.026,8.245C444.809,106.055,441.492,108.848,437.73,108.848z"/>
	<path style="fill:#45B8C4;" d="M408.036,108.848c-7.036,0-10.496-9.03-5.183-13.707c2.371-2.087,5.881-2.541,8.703-1.121
		c3.026,1.523,4.772,4.933,4.205,8.285C415.131,106.024,411.821,108.848,408.036,108.848z"/>
</g>
<g>
</g>
<g>
</g>
<g>
</g>
<g>
</g>
<g>
</g>
<g>
</g>
<g>
</g>
<g>
</g>
<g>
</g>
<g>
</g>
<g>
</g>
<g>
</g>
<g>
</g>
<g>
</g>
<g>
</g>
</svg>
